<svg xmlns="http://www.w3.org/2000/svg" width="1710" height="959" viewBox="0 0 1710 959" fill="none">
  <g filter="url(#filter0_f_137_143)">
    <path d="M929.245 703.649C929.245 934.863 741.741 1122.3 510.443 1122.3C279.145 1122.3 91.641 934.863 91.641 703.649C91.641 472.436 279.145 285 510.443 285C741.741 285 929.245 472.436 929.245 703.649Z" fill="#26C1DC" fill-opacity="0.25"/>
    <path d="M1425 872.293C1425 1081.45 1255.39 1251 1046.15 1251C836.924 1251 667.309 1081.45 667.309 872.293C667.309 663.138 836.924 493.585 1046.15 493.585C1255.39 493.585 1425 663.138 1425 872.293Z" fill="#2898DD" fill-opacity="0.25"/>
    <path d="M418.691 743.591C418.691 952.746 249.076 1122.3 39.8456 1122.3C-169.385 1122.3 -339 952.746 -339 743.591C-339 534.437 -169.385 364.884 39.8456 364.884C249.076 364.884 418.691 534.437 418.691 743.591Z" fill="#22DA75" fill-opacity="0.25"/>
  </g>
  <defs>
    <filter id="filter0_f_137_143" x="-623.3" y="0.700012" width="2332.6" height="1534.6" filterUnits="userSpaceOnUse" color-interpolation-filters="sRGB">
      <feFlood flood-opacity="0" result="BackgroundImageFix"/>
      <feBlend mode="normal" in="SourceGraphic" in2="BackgroundImageFix" result="shape"/>
      <feGaussianBlur stdDeviation="142.15" result="effect1_foregroundBlur_137_143"/>
    </filter>
  </defs>
</svg>
