<svg width="25" height="10" viewBox="0 0 25 10" fill="none" xmlns="http://www.w3.org/2000/svg">
<path d="M0 3.5C0 3.22386 0.223858 3 0.5 3C0.776142 3 1 3.22386 1 3.5V6.5C1 6.77614 0.776142 7 0.5 7C0.223858 7 0 6.77614 0 6.5V3.5Z" fill="#808080"/>
<path d="M2 2.5C2 2.22386 2.22386 2 2.5 2C2.77614 2 3 2.22386 3 2.5V7.5C3 7.77614 2.77614 8 2.5 8C2.22386 8 2 7.77614 2 7.5V2.5Z" fill="#808080"/>
<path d="M8 2.5C8 2.22386 8.22386 2 8.5 2C8.77614 2 9 2.22386 9 2.5V7.5C9 7.77614 8.77614 8 8.5 8C8.22386 8 8 7.77614 8 7.5V2.5Z" fill="#808080"/>
<path d="M6 0.5C6 0.223858 6.22386 0 6.5 0C6.77614 0 7 0.223858 7 0.5V9.5C7 9.77614 6.77614 10 6.5 10C6.22386 10 6 9.77614 6 9.5V0.5Z" fill="#808080"/>
<path d="M12 0.5C12 0.223858 12.2239 0 12.5 0C12.7761 0 13 0.223858 13 0.5V9.5C13 9.77614 12.7761 10 12.5 10C12.2239 10 12 9.77614 12 9.5V0.5Z" fill="#808080"/>
<path d="M4 4.5C4 4.22386 4.22386 4 4.5 4C4.77614 4 5 4.22386 5 4.5V5.5C5 5.77614 4.77614 6 4.5 6C4.22386 6 4 5.77614 4 5.5V4.5Z" fill="#808080"/>
<path d="M10 4.5C10 4.22386 10.2239 4 10.5 4C10.7761 4 11 4.22386 11 4.5V5.5C11 5.77614 10.7761 6 10.5 6C10.2239 6 10 5.77614 10 5.5V4.5Z" fill="#808080"/>
<path d="M25 3.5C25 3.22386 24.7761 3 24.5 3C24.2239 3 24 3.22386 24 3.5V6.5C24 6.77614 24.2239 7 24.5 7C24.7761 7 25 6.77614 25 6.5V3.5Z" fill="#808080"/>
<path d="M23 2.5C23 2.22386 22.7761 2 22.5 2C22.2239 2 22 2.22386 22 2.5V7.5C22 7.77614 22.2239 8 22.5 8C22.7761 8 23 7.77614 23 7.5V2.5Z" fill="#808080"/>
<path d="M17 2.5C17 2.22386 16.7761 2 16.5 2C16.2239 2 16 2.22386 16 2.5V7.5C16 7.77614 16.2239 8 16.5 8C16.7761 8 17 7.77614 17 7.5V2.5Z" fill="#808080"/>
<path d="M19 0.5C19 0.223858 18.7761 0 18.5 0C18.2239 0 18 0.223858 18 0.5V9.5C18 9.77614 18.2239 10 18.5 10C18.7761 10 19 9.77614 19 9.5V0.5Z" fill="#808080"/>
<path d="M13 0.5C13 0.223858 12.7761 0 12.5 0C12.2239 0 12 0.223858 12 0.5V9.5C12 9.77614 12.2239 10 12.5 10C12.7761 10 13 9.77614 13 9.5V0.5Z" fill="#808080"/>
<path d="M21 4.5C21 4.22386 20.7761 4 20.5 4C20.2239 4 20 4.22386 20 4.5V5.5C20 5.77614 20.2239 6 20.5 6C20.7761 6 21 5.77614 21 5.5V4.5Z" fill="#808080"/>
<path d="M15 4.5C15 4.22386 14.7761 4 14.5 4C14.2239 4 14 4.22386 14 4.5V5.5C14 5.77614 14.2239 6 14.5 6C14.7761 6 15 5.77614 15 5.5V4.5Z" fill="#808080"/>
</svg>

